<?xml version="1.0" standalone="no"?>
<!DOCTYPE svg PUBLIC "-//W3C//DTD SVG 20010904//EN"
 "http://www.w3.org/TR/2001/REC-SVG-20010904/DTD/svg10.dtd">
<svg version="1.0" xmlns="http://www.w3.org/2000/svg"
 width="1181.000000pt" height="1181.000000pt" viewBox="0 0 1181.000000 1181.000000"
 preserveAspectRatio="xMidYMid meet">
<metadata>
Created by potrace 1.11, written by Peter Selinger 2001-2013
</metadata>
<g transform="translate(0.000000,1181.000000) scale(0.100000,-0.100000)"
fill="#000000" stroke="none">
<path d="M7835 9006 c-13 -13 -27 -37 -31 -53 -4 -15 -16 -48 -27 -73 -11 -25
-24 -76 -28 -115 -15 -140 -28 -202 -58 -275 -31 -78 -61 -108 -109 -109 -13
-1 -56 -14 -95 -30 -82 -33 -205 -56 -245 -46 -15 3 -45 19 -68 35 -65 46 -86
47 -131 7 -21 -19 -57 -40 -80 -46 -44 -12 -73 -42 -73 -74 0 -10 14 -38 31
-62 30 -42 31 -45 26 -132 -8 -114 -28 -229 -55 -308 -6 -16 -13 -51 -17 -77
-3 -25 -13 -52 -20 -58 -8 -7 -15 -22 -15 -34 0 -11 -9 -45 -20 -74 -11 -29
-20 -73 -20 -98 0 -29 -12 -75 -34 -127 -19 -45 -40 -113 -46 -152 -19 -107
-36 -165 -64 -221 -17 -34 -26 -68 -26 -98 0 -26 -6 -59 -14 -74 -7 -15 -16
-49 -20 -77 -7 -52 -26 -105 -38 -105 -5 0 -8 -5 -8 -12 0 -6 -9 -21 -20 -33
-20 -22 -26 -72 -14 -137 6 -37 7 -38 49 -38 27 0 47 6 58 18 15 17 77 143 77
158 0 4 11 30 24 58 13 28 27 74 31 101 4 28 14 62 21 77 24 48 102 291 109
343 4 28 12 58 17 69 6 10 11 31 13 45 10 108 42 222 65 236 5 3 10 21 10 38
0 18 9 58 20 90 11 32 22 82 25 110 4 29 13 70 20 92 8 22 23 78 34 124 11 45
26 90 34 100 8 9 17 34 20 55 8 48 45 89 95 104 61 18 213 44 283 49 80 5 99
-8 99 -68 0 -40 26 -79 53 -79 23 0 65 54 82 105 22 64 49 93 94 101 20 3 60
14 89 25 29 10 71 19 92 19 l40 0 0 -103 c0 -57 -3 -107 -7 -111 -5 -4 -13
-30 -19 -58 -11 -48 -10 -52 15 -81 39 -43 68 -33 123 45 56 79 118 193 118
216 0 10 9 34 20 55 11 20 20 50 20 67 0 16 4 49 10 72 32 145 32 152 9 171
-13 11 -38 17 -68 17 -39 0 -54 -6 -87 -33 -78 -66 -103 -76 -197 -78 -52 -2
-92 2 -98 8 -6 6 -13 44 -15 84 -2 41 -6 92 -9 113 -5 30 1 54 26 105 17 36
43 78 57 94 35 37 33 100 -5 140 -36 36 -93 38 -128 3z"/>
<path d="M2300 8553 c-33 -23 -41 -50 -46 -151 -4 -72 -11 -111 -29 -152 -13
-30 -33 -91 -45 -135 -12 -45 -34 -98 -50 -122 -17 -23 -30 -44 -30 -48 0 -3
-11 -23 -25 -43 -14 -20 -25 -49 -25 -64 0 -17 -16 -45 -46 -80 -25 -29 -52
-67 -60 -84 -19 -40 -99 -124 -118 -124 -8 0 -18 -9 -21 -20 -3 -11 -15 -25
-26 -30 -10 -6 -19 -17 -19 -25 0 -7 -18 -35 -40 -60 -46 -53 -49 -73 -18
-102 36 -34 91 -39 131 -14 19 12 44 21 56 21 13 0 29 7 37 15 9 8 26 15 38
15 13 0 29 7 36 15 7 8 18 15 24 15 6 0 25 7 41 16 17 9 53 18 82 21 43 5 58
12 89 44 21 22 42 39 47 39 5 0 22 11 39 25 16 13 51 31 79 39 27 8 61 24 76
36 23 18 40 20 170 20 l145 0 34 34 c29 29 34 41 34 83 0 76 -17 87 -127 79
-182 -12 -245 -28 -299 -75 -17 -16 -54 -37 -80 -47 -27 -10 -69 -29 -94 -41
-30 -15 -63 -23 -97 -23 -49 0 -53 2 -53 24 0 13 18 46 40 72 22 27 40 53 40
58 0 5 15 32 34 60 20 30 36 71 40 99 10 63 32 116 64 150 20 21 27 42 33 91
3 35 16 83 27 107 16 33 21 66 23 129 1 111 -9 136 -56 142 -21 2 -44 -2 -55
-9z"/>
<path d="M11002 8498 c-18 -19 -38 -23 -129 -30 -111 -7 -167 -17 -216 -37
-16 -6 -46 -11 -68 -11 -59 0 -79 -14 -79 -56 0 -69 5 -71 137 -68 65 1 150 7
188 14 148 24 171 24 194 1 25 -25 21 -52 -13 -91 -12 -14 -30 -37 -39 -52
-10 -16 -23 -28 -30 -28 -7 0 -33 -21 -59 -47 -37 -39 -47 -58 -54 -98 -13
-82 -13 -84 97 -208 25 -29 55 -70 67 -92 45 -88 52 -215 17 -332 -8 -27 -19
-87 -24 -134 -10 -92 -23 -129 -58 -172 -13 -16 -23 -37 -23 -48 0 -11 -9 -38
-19 -62 -11 -23 -21 -51 -23 -62 -3 -16 -11 -20 -37 -18 -38 1 -59 19 -112 89
-43 59 -78 73 -115 49 -20 -13 -24 -24 -24 -64 0 -74 44 -123 165 -186 86 -44
159 -61 186 -42 40 29 99 135 99 179 0 37 32 85 78 118 40 28 43 34 41 73 -1
42 17 173 27 189 3 5 6 98 6 207 l1 199 -33 67 c-18 37 -55 91 -82 120 -67 73
-66 101 5 156 28 22 59 55 67 73 15 31 36 60 108 145 27 32 32 46 32 87 -1 40
-8 59 -38 104 -36 53 -39 55 -92 61 -31 3 -65 11 -77 17 -31 17 -46 15 -71
-10z"/>
<path d="M9453 8444 c-29 -12 -48 -34 -140 -159 -12 -16 -34 -50 -49 -75 -15
-25 -41 -61 -58 -80 -31 -35 -40 -49 -82 -127 -35 -67 -257 -313 -281 -313
-21 0 -112 -62 -151 -103 -19 -20 -35 -48 -38 -69 l-6 -36 48 -4 c47 -5 111
14 193 55 13 7 57 12 96 12 83 0 100 -10 135 -79 12 -22 48 -68 80 -101 55
-57 140 -173 140 -191 0 -5 14 -29 30 -53 42 -62 39 -93 -12 -146 -24 -24 -72
-78 -108 -121 -72 -85 -192 -209 -257 -266 -30 -25 -43 -44 -43 -62 0 -33 17
-33 106 -1 38 14 86 25 107 25 50 0 83 18 138 77 106 112 188 182 222 188 34
7 38 3 203 -165 202 -206 216 -217 250 -200 13 7 31 24 40 37 14 22 14 27 -3
55 -10 17 -45 52 -78 78 -48 37 -63 57 -81 103 -12 31 -38 76 -58 99 -98 117
-106 129 -106 167 0 20 -7 46 -15 57 -22 29 -18 74 10 119 21 34 24 53 25 123
0 63 5 92 20 122 17 32 20 59 20 154 0 136 3 141 110 150 65 5 149 30 205 60
17 9 45 16 64 16 40 0 101 55 101 92 0 54 -65 92 -113 66 -30 -17 -117 -28
-283 -36 -78 -4 -147 -12 -155 -18 -8 -6 -32 -17 -54 -24 -22 -7 -44 -16 -49
-21 -6 -5 -45 -9 -88 -9 -54 0 -93 -6 -128 -20 -68 -27 -112 -26 -146 4 -21
18 -28 32 -28 60 0 32 8 45 60 94 33 31 86 92 118 135 32 43 96 112 142 155
56 51 84 83 84 98 0 30 -28 61 -70 77 -30 12 -40 12 -67 1z m115 -821 c15 -50
0 -215 -23 -249 -8 -13 -24 -24 -34 -24 -31 0 -147 106 -180 166 -54 95 -39
123 66 125 32 1 69 5 83 9 57 18 76 12 88 -27z"/>
<path d="M5765 8200 c-11 -5 -34 -9 -52 -9 -48 -1 -151 -30 -197 -56 -22 -12
-77 -37 -121 -55 -84 -34 -155 -94 -155 -130 0 -10 -3 -25 -6 -34 -4 -10 21
-45 78 -104 92 -98 138 -154 158 -192 7 -14 29 -42 49 -63 45 -47 49 -59 50
-127 1 -43 -6 -68 -32 -117 -36 -70 -116 -207 -157 -268 -15 -22 -31 -51 -35
-65 -4 -14 -16 -37 -27 -52 -19 -28 -20 -28 -135 -28 -108 0 -117 2 -145 25
-16 13 -51 31 -79 39 -34 11 -69 33 -111 71 -34 30 -67 55 -74 55 -7 0 -36 19
-63 43 -75 64 -124 103 -147 115 -12 6 -41 35 -65 63 -42 51 -42 51 -26 82 8
18 19 43 22 57 4 14 22 41 40 60 39 41 85 121 85 147 0 19 28 80 59 128 11 17
20 44 20 61 1 17 11 44 24 60 31 39 38 171 11 198 -18 19 -16 19 -194 0 -37
-4 -66 -14 -90 -32 -27 -21 -49 -27 -100 -30 -43 -3 -73 -11 -89 -23 -13 -11
-32 -19 -41 -19 -10 0 -20 -7 -23 -14 -3 -8 -21 -18 -39 -21 -23 -4 -40 -17
-56 -41 -25 -38 -27 -52 -9 -75 11 -14 20 -15 67 -6 30 5 83 21 117 33 34 13
71 24 82 24 11 0 23 5 26 10 7 11 94 14 119 4 18 -7 23 -79 6 -89 -5 -3 -10
-14 -10 -23 0 -9 -9 -28 -20 -42 -11 -14 -20 -41 -20 -61 0 -69 -28 -126 -80
-164 -63 -46 -111 -48 -165 -5 -21 17 -43 30 -50 30 -16 0 -105 95 -105 113 0
20 -61 75 -92 82 -22 6 -33 1 -58 -23 -17 -18 -30 -41 -30 -56 0 -31 44 -97
104 -156 25 -24 46 -49 46 -55 0 -12 81 -95 92 -95 10 0 56 -47 68 -70 20 -37
14 -56 -43 -165 -60 -113 -77 -149 -77 -160 0 -18 -58 -132 -71 -140 -22 -14
-79 -151 -79 -192 0 -20 51 -73 70 -73 21 0 72 57 100 111 16 33 30 64 30 70
0 5 20 40 44 77 36 56 45 79 51 135 6 51 11 68 25 72 18 6 70 66 70 81 0 15
36 33 65 34 24 0 46 -15 106 -73 42 -39 78 -77 80 -82 2 -6 22 -20 44 -32 114
-59 204 -107 242 -129 23 -13 49 -24 59 -24 10 0 25 -6 33 -14 9 -8 42 -28 75
-45 58 -31 59 -31 145 -21 47 5 118 10 157 10 61 0 74 3 92 23 12 13 22 28 22
34 0 5 10 18 21 29 12 10 28 33 36 49 7 17 17 37 22 45 5 8 14 26 20 40 6 14
19 39 29 55 11 17 27 54 36 82 10 29 22 55 26 58 5 3 23 32 41 65 26 49 37 61
63 65 35 7 75 -5 95 -29 7 -9 18 -16 23 -16 5 0 21 -12 36 -26 15 -14 53 -43
84 -65 31 -21 75 -61 98 -88 28 -33 54 -52 78 -59 162 -46 181 -49 255 -44 53
3 78 9 81 19 8 19 -70 102 -111 119 -18 8 -48 14 -66 14 -25 0 -48 11 -85 40
-27 22 -54 40 -59 40 -5 0 -32 24 -60 54 -28 29 -77 71 -109 92 -111 75 -142
190 -74 275 16 20 41 63 56 94 15 31 49 80 75 109 26 28 53 67 61 86 8 19 52
71 97 115 75 74 81 83 81 121 0 73 -4 74 -266 73 -126 0 -238 -4 -249 -9z
m174 -148 c21 -2 23 -6 18 -36 -3 -19 -17 -52 -31 -75 -14 -22 -26 -46 -26
-52 0 -6 -8 -23 -18 -37 -10 -15 -24 -43 -32 -62 -7 -19 -31 -54 -54 -77 -35
-38 -45 -43 -85 -43 -43 0 -47 3 -150 107 -58 59 -107 116 -108 128 -1 20 52
85 71 85 5 0 23 12 39 28 24 23 39 28 105 32 69 5 206 6 271 2z"/>
<path d="M10601 8126 c-18 -19 -23 -38 -26 -92 -2 -38 -10 -82 -19 -99 -11
-20 -16 -56 -16 -108 l0 -78 -45 -48 c-27 -29 -45 -57 -45 -72 0 -37 -29 -168
-43 -192 -6 -11 -20 -30 -30 -41 -18 -20 -20 -28 -32 -96 -4 -25 -22 -50 -65
-93 -49 -47 -60 -64 -60 -90 0 -18 -9 -45 -20 -62 -11 -16 -20 -42 -20 -57 0
-15 -16 -47 -38 -75 -52 -67 -72 -115 -72 -173 0 -57 18 -80 62 -80 25 0 43
12 89 58 49 49 58 64 64 107 6 39 18 62 51 102 24 28 44 61 44 73 0 27 36 105
67 143 12 15 25 48 28 75 3 26 10 55 16 64 5 10 9 25 9 33 0 8 15 32 34 52 18
21 39 56 47 78 7 22 24 56 36 75 13 19 23 50 23 68 0 31 13 65 60 152 15 27
19 57 20 128 0 51 5 125 11 163 10 63 9 73 -7 90 -26 29 -94 26 -123 -5z"/>
<path d="M7716 7723 c-6 -7 -96 -16 -291 -29 -90 -7 -110 -18 -119 -69 -5 -24
-16 -39 -41 -54 l-35 -20 0 -96 c0 -93 1 -98 29 -126 25 -25 37 -29 82 -29 51
0 54 -2 111 -60 60 -62 72 -96 44 -120 -17 -13 -48 -77 -66 -133 -15 -49 -61
-101 -102 -117 -46 -18 -68 -39 -68 -65 0 -40 79 -92 117 -78 34 12 144 116
182 172 56 81 83 103 126 103 38 0 148 -49 191 -85 22 -19 44 -32 146 -85 35
-18 70 -40 79 -48 8 -8 19 -14 23 -14 4 0 26 -13 49 -30 43 -30 127 -50 215
-50 36 0 48 5 73 32 16 18 29 38 29 44 0 24 -61 64 -96 64 -51 0 -169 65 -194
106 -10 19 -26 34 -34 34 -7 0 -37 16 -66 36 -29 20 -66 41 -84 46 -38 14
-108 60 -161 107 -22 20 -50 43 -63 51 -17 11 -24 27 -27 59 -5 54 12 96 55
136 37 35 60 75 60 107 0 13 7 32 16 43 20 27 37 93 30 121 -9 35 -55 54 -134
54 -38 0 -72 -3 -76 -7z m-63 -162 c14 -6 28 -18 31 -28 15 -46 -35 -125 -86
-138 -19 -5 -38 1 -69 21 -89 57 -112 88 -90 123 15 24 168 39 214 22z"/>
<path d="M1269 7715 c-13 -12 -297 -35 -377 -30 -108 7 -97 7 -161 -4 -97 -18
-123 -73 -59 -126 l30 -25 223 0 223 0 31 -26 c39 -33 40 -63 1 -134 -16 -30
-29 -65 -30 -76 0 -33 -29 -94 -61 -133 -16 -20 -29 -42 -29 -50 0 -7 -9 -32
-19 -55 -11 -23 -25 -68 -32 -101 -7 -33 -21 -78 -31 -100 -10 -22 -18 -52
-18 -66 0 -15 -7 -43 -15 -62 -30 -71 -14 -120 48 -145 26 -11 31 -8 98 53 39
36 76 65 82 65 6 0 41 14 77 31 103 49 109 51 210 68 48 7 129 56 155 93 8 13
15 38 15 56 l0 34 -92 -6 c-257 -18 -241 -15 -274 -47 -25 -24 -37 -29 -58
-23 -24 6 -26 10 -26 59 0 35 5 57 15 65 8 7 29 40 46 74 17 33 43 83 59 110
15 27 31 66 34 86 3 21 21 54 43 80 33 38 39 53 44 110 4 36 10 82 14 102 6
31 4 40 -18 62 -14 14 -38 28 -54 31 -23 5 -58 19 -84 32 -3 2 -7 1 -10 -2z"/>
<path d="M358 7363 c-57 -61 -65 -115 -19 -131 15 -5 58 -38 95 -73 l67 -62
-4 -61 c-3 -34 -8 -71 -12 -84 -6 -17 0 -30 31 -61 34 -34 47 -39 103 -46 60
-7 65 -6 82 16 40 52 41 167 3 212 -13 16 -24 39 -24 52 0 13 -9 44 -20 69
-12 28 -17 59 -15 81 6 43 -13 55 -85 54 -38 -1 -56 3 -73 18 -55 50 -93 55
-129 16z"/>
<path d="M2865 7208 c-174 -32 -238 -56 -350 -133 -24 -16 -52 -25 -76 -25
-21 0 -48 -4 -61 -9 -13 -5 -50 -17 -83 -27 -33 -9 -87 -30 -119 -46 -33 -15
-66 -28 -73 -28 -8 0 -32 -9 -54 -20 -22 -12 -54 -22 -72 -23 -18 -1 -39 -11
-48 -22 -10 -11 -32 -21 -55 -23 -22 -2 -55 -5 -74 -6 -23 -2 -41 -11 -54 -29
l-19 -26 29 -29 c16 -16 35 -37 43 -47 14 -18 33 -17 141 5 61 12 68 14 162
59 36 18 83 34 105 37 21 3 47 9 58 14 97 41 142 64 158 80 12 14 31 20 60 20
23 0 51 7 61 15 11 8 27 15 35 15 9 0 27 9 41 20 56 44 121 6 89 -51 -7 -13
-12 -32 -10 -42 1 -10 -5 -29 -13 -42 -9 -14 -16 -46 -16 -73 0 -27 -3 -52 -7
-56 -10 -9 -33 -78 -33 -97 0 -9 -7 -22 -15 -29 -8 -7 -15 -29 -15 -49 0 -20
-7 -58 -16 -86 -31 -98 -35 -115 -30 -124 3 -5 -8 -36 -24 -69 -17 -34 -30
-67 -30 -74 0 -7 -7 -26 -15 -41 -8 -16 -15 -38 -15 -50 0 -12 -3 -52 -6 -90
-7 -75 -1 -89 50 -113 17 -8 45 -23 62 -34 31 -20 34 -20 95 -4 41 11 71 26
82 41 10 12 25 23 33 23 8 0 56 20 107 43 51 24 117 52 147 62 78 25 213 90
279 133 31 20 83 50 116 66 33 17 81 47 107 68 26 21 51 38 56 38 14 0 32 47
32 83 0 21 -14 53 -40 92 -22 33 -40 64 -40 69 0 18 -51 76 -67 76 -9 0 -31
-16 -49 -36 -33 -35 -34 -36 -28 -107 7 -86 -5 -108 -88 -155 -29 -16 -75 -48
-102 -70 -27 -22 -61 -43 -75 -47 -14 -4 -40 -17 -58 -31 -17 -13 -35 -24 -40
-24 -5 0 -32 -16 -62 -35 -29 -19 -55 -35 -57 -35 -2 0 -23 -9 -47 -19 -114
-53 -192 -64 -220 -33 -18 20 -23 57 -8 66 8 6 18 39 46 161 9 39 30 115 46
170 17 55 36 118 42 140 6 22 13 45 17 50 4 6 13 30 20 55 7 25 24 66 37 92
15 31 23 65 23 100 0 59 24 135 66 206 16 26 27 56 25 67 -4 24 -30 56 -45 54
-6 -1 -33 -6 -61 -11z"/>
<path d="M8814 5874 c-42 -44 -43 -53 -3 -236 10 -42 8 -52 -11 -83 -27 -44
-102 -84 -179 -96 -31 -5 -81 -16 -111 -25 -53 -15 -119 -26 -260 -42 -93 -11
-160 -54 -160 -103 0 -15 11 -74 25 -131 73 -300 78 -336 79 -588 1 -244 -4
-295 -49 -480 -12 -52 -26 -117 -30 -145 -3 -27 -18 -79 -32 -115 -33 -88 -38
-102 -63 -200 -12 -47 -39 -129 -60 -183 l-39 -97 39 -20 c92 -47 144 -10 171
122 6 29 19 82 30 117 10 35 19 80 19 100 0 21 6 57 14 82 96 308 116 393 116
494 0 52 5 90 15 109 8 15 15 41 15 56 0 15 7 46 15 69 8 23 14 69 14 104 0
34 1 73 2 87 0 14 -4 52 -10 85 -16 84 -32 254 -34 360 -2 89 -1 91 32 132 48
60 69 65 291 64 8 0 46 3 84 6 l68 5 -6 -44 c-3 -23 -9 -73 -12 -109 -6 -62
-4 -68 17 -83 26 -18 65 -21 102 -7 30 12 60 83 85 203 10 47 26 98 35 111 25
38 106 62 202 59 91 -4 105 -13 105 -73 0 -46 36 -79 84 -79 45 0 67 24 121
134 52 105 53 135 10 176 -21 20 -30 21 -97 16 -40 -3 -129 -8 -198 -11 -69
-3 -135 -11 -146 -16 -12 -6 -30 -9 -40 -7 -28 5 -60 61 -67 117 -3 28 -13 61
-22 73 -8 13 -15 31 -15 42 0 24 -66 86 -92 86 -11 0 -36 -16 -54 -36z"/>
<path d="M6224 5335 c-14 -25 -41 -90 -60 -144 -18 -54 -42 -114 -54 -133 -11
-20 -36 -81 -54 -136 -34 -100 -61 -145 -193 -312 -23 -30 -67 -87 -97 -126
-30 -40 -71 -85 -91 -100 -53 -40 -59 -63 -27 -96 35 -38 70 -36 121 6 54 46
98 71 146 86 22 7 58 29 80 50 23 22 58 43 82 49 23 6 54 18 70 26 15 8 42 15
58 15 17 0 62 10 100 21 39 11 84 24 100 28 17 4 40 13 51 19 37 19 108 42
135 42 68 0 149 52 262 167 61 63 68 74 73 120 6 47 5 52 -20 68 -22 15 -39
16 -94 11 -78 -8 -140 -34 -199 -85 -129 -111 -191 -141 -291 -141 l-73 0 5
83 c9 155 22 242 43 289 13 28 24 81 28 133 8 96 4 105 -47 105 -22 0 -33 -9
-54 -45z"/>
<path d="M3599 4955 c-3 -2 -34 -9 -70 -15 -35 -5 -84 -14 -109 -20 -25 -5
-78 -14 -119 -20 -41 -5 -79 -14 -86 -20 -6 -5 -36 -15 -66 -21 -30 -6 -71
-20 -93 -31 -26 -13 -42 -16 -49 -9 -7 7 -22 4 -48 -10 -22 -11 -58 -19 -87
-19 -43 0 -55 -5 -93 -38 -65 -57 -91 -72 -119 -72 -26 0 -70 -36 -70 -58 0
-16 70 -82 88 -82 7 0 28 6 45 14 18 7 48 20 67 27 19 7 48 23 63 36 16 13 41
25 55 28 15 3 41 10 58 15 17 6 49 10 73 10 23 0 62 9 87 20 56 26 130 40 210
40 72 0 75 -4 44 -65 -11 -22 -20 -59 -20 -85 0 -35 -9 -60 -39 -110 -22 -36
-50 -83 -62 -105 -12 -22 -31 -53 -44 -70 -12 -16 -25 -42 -29 -57 -7 -31 -54
-104 -103 -163 -19 -22 -45 -63 -59 -91 -14 -28 -43 -66 -65 -84 -23 -18 -56
-56 -74 -84 -18 -29 -68 -90 -111 -137 -42 -46 -85 -102 -96 -124 -10 -22 -29
-55 -43 -74 -14 -19 -25 -46 -25 -60 0 -28 42 -81 64 -81 22 0 244 259 329
384 27 39 60 84 75 99 34 36 82 71 88 64 11 -11 33 -125 28 -144 -3 -11 2 -35
11 -52 9 -18 25 -72 35 -120 11 -48 28 -116 40 -151 11 -36 20 -79 20 -97 0
-17 5 -35 10 -38 6 -3 10 -19 10 -35 0 -16 4 -31 9 -34 5 -4 12 -25 16 -49 12
-67 72 -243 98 -284 33 -52 132 -143 155 -143 31 0 82 67 82 109 0 11 -12 33
-26 48 -53 56 -73 89 -84 137 -6 26 -19 65 -31 87 -11 22 -22 56 -24 77 -13
97 -18 120 -36 159 -10 24 -19 61 -19 84 0 23 -4 58 -9 78 -5 20 -18 72 -30
116 -11 44 -22 103 -25 130 -2 28 -10 88 -17 135 -20 138 -15 275 13 393 10
41 33 78 41 66 7 -11 41 -85 41 -91 1 -4 28 -27 61 -51 33 -24 67 -52 75 -62
28 -34 103 -75 138 -75 37 0 70 -24 206 -150 114 -107 238 -200 266 -200 8 0
46 -21 84 -45 57 -37 78 -45 116 -45 49 0 70 13 70 41 0 17 -117 129 -143 138
-7 2 -41 32 -77 67 -36 34 -83 76 -105 92 -37 27 -55 51 -69 95 -3 9 -16 21
-30 27 -13 5 -27 13 -30 19 -3 5 -25 12 -48 16 -35 6 -57 23 -150 115 -88 87
-127 117 -198 155 -49 26 -96 55 -105 64 -14 16 -13 21 10 52 14 19 34 53 45
77 12 23 24 42 29 42 11 0 67 118 85 183 18 64 14 82 -30 116 -25 19 -64 28
-75 16z"/>
<path d="M9325 4753 c-27 -2 -99 -10 -158 -19 -69 -11 -136 -15 -188 -11 -93
6 -214 -8 -243 -29 -11 -8 -33 -14 -49 -14 -57 0 -125 -31 -167 -76 -63 -69
-52 -118 42 -189 32 -24 71 -46 87 -50 16 -3 39 -17 51 -31 13 -13 30 -24 37
-24 28 0 71 -30 82 -57 6 -15 18 -39 26 -53 8 -14 15 -37 15 -52 0 -36 -28
-106 -55 -139 -22 -28 -39 -66 -49 -111 -3 -14 -39 -62 -79 -105 -40 -43 -80
-90 -89 -104 -15 -24 -15 -28 -1 -49 14 -20 22 -22 70 -18 50 4 58 9 114 64
34 32 72 82 85 109 14 28 64 91 112 141 83 87 89 92 136 97 51 5 80 -7 152
-60 17 -13 35 -23 41 -23 11 0 95 -54 136 -87 16 -13 36 -23 46 -23 10 0 26
-9 36 -20 10 -11 57 -41 104 -66 47 -26 109 -62 138 -81 67 -44 226 -95 270
-87 36 7 41 22 23 69 -16 43 -59 75 -185 136 -259 125 -400 228 -591 431 -20
21 -25 34 -20 53 4 14 13 25 20 25 16 0 136 115 136 130 0 20 42 100 53 100
14 0 95 68 113 95 23 35 25 77 6 102 -15 19 -29 22 -112 25 -52 2 -117 2 -145
1z m-105 -164 c11 -16 5 -30 -50 -119 -32 -52 -59 -82 -85 -97 -44 -25 -59
-21 -112 29 -35 34 -54 46 -131 82 -104 49 -80 79 93 116 59 13 276 5 285 -11z"/>
<path d="M5270 4710 c-79 -4 -116 -11 -150 -27 -25 -12 -80 -29 -124 -38 -86
-17 -124 -42 -183 -116 -37 -46 -42 -83 -15 -98 13 -7 38 0 97 28 121 57 222
78 458 98 78 6 93 -2 103 -55 10 -50 -7 -89 -93 -225 -41 -65 -84 -140 -94
-168 -20 -53 -86 -159 -107 -172 -7 -4 -18 -23 -26 -41 -11 -26 -29 -40 -87
-69 -41 -20 -82 -38 -92 -41 -9 -3 -20 -12 -23 -20 -7 -18 54 -135 78 -150 22
-13 91 24 205 110 46 35 105 74 131 87 26 13 78 45 115 70 38 26 78 47 89 47
20 0 98 69 98 87 0 5 -11 20 -24 32 l-24 23 -38 -26 c-21 -14 -47 -26 -56 -26
-10 0 -47 -10 -83 -21 -53 -18 -68 -19 -80 -9 -24 20 -19 33 40 106 32 40 66
97 81 136 14 37 33 77 43 90 9 13 39 61 65 108 27 47 64 105 83 129 18 24 33
48 33 52 0 17 -66 83 -97 95 -33 14 -117 15 -323 4z"/>
<path d="M4738 4275 c-44 -72 -44 -83 1 -145 22 -30 54 -78 71 -106 16 -28 41
-61 55 -74 14 -13 25 -31 25 -39 0 -9 7 -25 15 -35 14 -18 17 -18 52 -3 21 9
48 19 61 22 39 11 21 68 -50 155 -38 47 -73 103 -135 215 -7 11 -14 28 -17 38
-11 34 -49 20 -78 -28z"/>
<path d="M6759 4285 c-51 -37 -229 -124 -269 -131 -36 -7 -73 -24 -190 -86
-241 -129 -251 -132 -370 -138 -89 -4 -110 -9 -138 -28 -58 -42 -34 -89 41
-79 94 13 273 47 326 63 60 17 146 59 226 109 66 42 107 55 170 55 50 0 54 -2
80 -40 25 -37 27 -44 22 -117 -7 -103 -23 -225 -38 -293 -7 -35 -10 -102 -6
-190 7 -198 16 -213 191 -345 l90 -67 60 4 c66 4 117 32 203 110 25 22 53 38
67 38 17 0 47 21 96 68 163 156 310 313 310 331 0 9 -10 32 -22 51 -12 19 -24
51 -27 70 -6 32 -10 35 -43 38 -50 4 -100 -41 -140 -127 -17 -36 -41 -80 -54
-97 -13 -17 -24 -35 -24 -40 -1 -5 -22 -26 -48 -46 -26 -21 -80 -64 -121 -97
-40 -32 -85 -65 -100 -71 -14 -7 -34 -16 -43 -21 -10 -5 -36 -9 -58 -9 -34 0
-42 4 -50 24 -5 13 -14 27 -20 31 -7 4 -26 37 -42 74 l-31 66 2 294 c1 162 7
303 12 312 18 34 49 185 49 240 0 43 -4 58 -16 63 -31 12 -61 6 -95 -19z"/>
</g>
</svg>
